<svg xmlns="http://www.w3.org/2000/svg" width="31.486" height="27.597" viewBox="0 0 31.486 27.597"><defs><style>.a{fill:#147ad6;}.b{fill:#459ceb;}.c{fill:#268de9;}</style></defs><g transform="translate(-40.422 -51.223)"><g transform="translate(49.41 51.223)"><g transform="translate(0 0)"><path class="a" d="M110.224,56.635H93.118a2.7,2.7,0,1,1,0-5.393h17.105a2.7,2.7,0,1,1,0,5.393Z" transform="translate(-90.422 -51.242)"/></g><g transform="translate(0.719 0.719)"><path class="b" d="M94.78,57.577a.36.36,0,1,1,.36-.36A.361.361,0,0,1,94.78,57.577Zm.6-1.255a.359.359,0,0,1-.227-.638A1.977,1.977,0,0,1,96.4,55.24h15.251a.36.36,0,0,1,0,.719H96.4a1.25,1.25,0,0,0-.793.282A.356.356,0,0,1,95.378,56.322Z" transform="translate(-94.42 -55.24)"/></g><g transform="translate(0.116 0.116)"><path class="b" d="M111.535,51.885a2.7,2.7,0,0,1-2.581,3.48H91.848a2.7,2.7,0,0,1-.783-.116,2.7,2.7,0,0,0,2.581,1.913h17.105a2.7,2.7,0,0,0,.783-5.277Z" transform="translate(-91.065 -51.885)"/></g><g transform="translate(0 11.102)"><path class="a" d="M110.224,118.393H93.118a2.7,2.7,0,1,1,0-5.393h17.105a2.7,2.7,0,1,1,0,5.393Z" transform="translate(-90.422 -113)"/></g><g transform="translate(0.116 11.217)"><path class="b" d="M111.535,113.643a2.7,2.7,0,0,1-2.581,3.48H91.848a2.7,2.7,0,0,1-.783-.116,2.7,2.7,0,0,0,2.581,1.913h17.105a2.7,2.7,0,0,0,.783-5.277Z" transform="translate(-91.065 -113.643)"/></g><g transform="translate(0 22.204)"><path class="a" d="M110.224,180.151H93.118a2.7,2.7,0,0,1,0-5.393h17.105a2.7,2.7,0,1,1,0,5.393Z" transform="translate(-90.422 -174.758)"/></g><g transform="translate(0.116 22.319)"><path class="b" d="M111.535,175.4a2.7,2.7,0,0,1-2.581,3.48H91.848a2.7,2.7,0,0,1-.783-.116,2.7,2.7,0,0,0,2.581,1.913h17.105a2.7,2.7,0,0,0,.783-5.277Z" transform="translate(-91.065 -175.401)"/></g><g transform="translate(0.394 22.597)"><path class="c" d="M113.425,176.949a2.7,2.7,0,0,1-2.3,4.1H94.017a2.683,2.683,0,0,1-1.4-.394,2.7,2.7,0,0,0,2.3,1.293h17.105a2.7,2.7,0,0,0,1.4-5Z" transform="translate(-92.613 -176.949)"/></g></g><g transform="translate(40.422 62.325)"><circle class="a" cx="2.696" cy="2.696" r="2.696" transform="translate(0)"/></g><g transform="translate(40.422 51.223)"><circle class="a" cx="2.696" cy="2.696" r="2.696" transform="translate(0)"/></g><g transform="translate(40.538 62.441)"><path class="b" d="M44.432,113.647a2.7,2.7,0,0,1-3.363,3.363,2.7,2.7,0,1,0,3.363-3.363Z" transform="translate(-41.069 -113.647)"/></g><g transform="translate(40.538 51.339)"><path class="b" d="M44.432,113.647a2.7,2.7,0,0,1-3.363,3.363,2.7,2.7,0,1,0,3.363-3.363Z" transform="translate(-41.069 -113.647)"/></g><g transform="translate(40.422 73.426)"><circle class="a" cx="2.696" cy="2.696" r="2.696" transform="translate(0)"/></g><g transform="translate(40.538 73.543)"><path class="b" d="M44.432,175.4a2.7,2.7,0,0,1-3.363,3.363,2.7,2.7,0,1,0,3.363-3.363Z" transform="translate(-41.069 -175.405)"/></g></g></svg>