<svg xmlns="http://www.w3.org/2000/svg" width="34.359" height="33.035" viewBox="0 0 34.359 33.035"><defs><style>.a{fill:#d3dcfb;}.b{fill:#ebf5fc;}.c{fill:#ff4155;}.d{fill:#e80054;}.e{fill:#fff;stroke:#147ad6;}.f{stroke:none;}.g{fill:none;}</style></defs><g transform="translate(-17.058 -1)"><g transform="translate(17.058 1)"><path class="a" d="M34.8,363.685H19.7a2.643,2.643,0,0,1-2.643-2.643V358.4H37.341Z" transform="translate(-17.059 -330.651)"/><path class="a" d="M19.6,363.685H34.7a2.643,2.643,0,0,0,2.643-2.643V358.4H17.059Z" transform="translate(-2.982 -330.651)"/><path class="b" d="M51.418,74.873v18.5H19.7a2.643,2.643,0,0,1-2.643-2.643V74.873l18.5-6.607Z" transform="translate(-17.059 -62.981)"/><path class="a" d="M437.114,143.721v19.264h1.836v-18.5Z" transform="translate(-404.591 -132.593)"/><path class="c" d="M51.418,43.384V36.777a2.643,2.643,0,0,0-2.643-2.643H19.7a2.643,2.643,0,0,0-2.643,2.643v6.607Z" transform="translate(-17.059 -31.491)"/><g transform="translate(6.009 4.687)"><path class="d" d="M96.984,61.737h-1.72a.6.6,0,1,1,0-1.2h1.72a.6.6,0,1,1,0,1.2Z" transform="translate(-94.666 -60.541)"/><g transform="translate(4.226)"><path class="d" d="M151.566,61.737h-1.72a.6.6,0,0,1,0-1.2h1.72a.6.6,0,1,1,0,1.2Z" transform="translate(-149.248 -60.541)"/></g><g transform="translate(15.197)"><path class="d" d="M293.261,61.737h-1.72a.6.6,0,0,1,0-1.2h1.72a.6.6,0,0,1,0,1.2Z" transform="translate(-290.943 -60.541)"/></g><g transform="translate(19.423)"><path class="d" d="M347.844,61.737h-1.72a.6.6,0,1,1,0-1.2h1.72a.6.6,0,1,1,0,1.2Z" transform="translate(-345.526 -60.541)"/></g></g><path class="b" d="M122.762,4.955a1.652,1.652,0,0,1-3.3,0v-3.3a1.652,1.652,0,1,1,3.3,0v3.3Z" transform="translate(-111.531 0)"/><path class="b" d="M319.039,4.955a1.652,1.652,0,0,1-3.3,0v-3.3a1.652,1.652,0,1,1,3.3,0v3.3Z" transform="translate(-292.611 0)"/><path class="a" d="M326.149,0a1.643,1.643,0,0,0-.916.278,1.65,1.65,0,0,1,.735,1.374v3.3a1.65,1.65,0,0,1-.735,1.374A1.651,1.651,0,0,0,327.8,4.955v-3.3A1.652,1.652,0,0,0,326.149,0Z" transform="translate(-301.373 0)"/><path class="a" d="M129.871,0a1.644,1.644,0,0,0-.916.278,1.65,1.65,0,0,1,.735,1.374v3.3a1.65,1.65,0,0,1-.735,1.374,1.651,1.651,0,0,0,2.568-1.374v-3.3A1.652,1.652,0,0,0,129.871,0Z" transform="translate(-120.291 0)"/><path class="d" d="M404.825,34.133H402.99a2.643,2.643,0,0,1,2.643,2.643v6.607h1.835V36.776a2.643,2.643,0,0,0-2.643-2.643Z" transform="translate(-373.109 -31.49)"/><path class="d" d="M17.058,111.74H51.417v1.2H17.058Z" transform="translate(-17.058 -103.089)"/></g><g class="e" transform="translate(29.058 21)"><rect class="f" width="10" height="2"/><rect class="g" x="0.5" y="0.5" width="9" height="1"/></g></g></svg>