<svg xmlns="http://www.w3.org/2000/svg" width="32" height="32" viewBox="0 0 32 32"><defs><style>.a{fill:#ff5876;}.b{fill:#e6485d;}.c{fill:#e4eef9;}.d{fill:#d5e0f2;}.e{fill:#405b6c;}.f{fill:#86dcff;}.g{fill:#2d4456;}</style></defs><g transform="translate(0)"><g transform="translate(0)"><path class="a" d="M32,16q0-.292-.01-.581a16,16,0,0,0-31.979,0Q0,15.708,0,16c0,8.837,8.219,15.419,16,15.419C23.922,31.419,32,24.837,32,16Z" transform="translate(0)"/><path class="b" d="M16,262.128A16,16,0,0,1,.012,246.709C0,246.9,0,247.1,0,247.29a16,16,0,0,0,32,0c0-.195,0-.388-.012-.581A16,16,0,0,1,16,262.128Z" transform="translate(0 -231.29)"/><path class="c" d="M69.253,55.152a13.351,13.351,0,0,0-26.677,0c-.008.193,0,13.083,13.339,13.083S69.261,55.345,69.253,55.152Z" transform="translate(-39.914 -39.733)"/><path class="d" d="M55.733,259.479A13.351,13.351,0,0,1,42.4,246.709c-.008.193-.013.386-.013.581a13.351,13.351,0,0,0,26.7,0c0-.195-.005-.388-.013-.581A13.351,13.351,0,0,1,55.733,259.479Z" transform="translate(-39.733 -231.29)"/><path class="e" d="M279,176.869a.968.968,0,0,0-1.369.009l-2.271,2.3.228,1.1,1.061.353,2.36-2.393A.968.968,0,0,0,279,176.869Z" transform="translate(-258.154 -165.553)"/><path class="e" d="M132.657,146.925l-5.15-4.59a.968.968,0,1,0-1.288,1.445l5.252,4.68,1.094-.365Z" transform="translate(-118.027 -133.21)"/><path class="f" d="M266.438,264.091a.482.482,0,0,1-.311-.113L260,258.829a.484.484,0,1,1,.622-.741l6.13,5.149a.484.484,0,0,1-.311.854Z" transform="translate(-243.585 -241.851)"/><path class="g" d="M215.1,220.982l.9.805,1.161-.394-.063-1.22-.815-.726A2.669,2.669,0,0,0,215.1,220.982Z" transform="translate(-201.659 -205.732)"/><path class="g" d="M263.837,218.038l-.768.779v1.529h1.21l.847-.859A2.672,2.672,0,0,0,263.837,218.038Z" transform="translate(-246.627 -204.411)"/><path class="a" d="M234.059,230.612a1.654,1.654,0,0,0-3.1,0,1.552,1.552,0,1,0,3.1,0Z" transform="translate(-216.51 -215.193)"/><path class="b" d="M231.193,247.783a1.654,1.654,0,0,1-1.549-1.073,1.654,1.654,0,1,0,3.1,0A1.654,1.654,0,0,1,231.193,247.783Z" transform="translate(-215.193 -231.291)"/></g><g transform="translate(3.862 3.862)"><path class="e" d="M249.213,63.775v-1.5a.485.485,0,0,0-.97,0v1.5a.485.485,0,0,0,.97,0Z" transform="translate(-236.59 -61.789)"/><path class="e" d="M248.243,411.155v1.5a.485.485,0,0,0,.97,0v-1.5a.485.485,0,1,0-.97,0Z" transform="translate(-236.59 -388.865)"/><path class="e" d="M412.657,249.213a.485.485,0,0,0,0-.97h-1.5a.485.485,0,1,0,0,.97Z" transform="translate(-388.865 -236.59)"/><path class="e" d="M62.274,248.243a.485.485,0,0,0,0,.97h1.5a.485.485,0,0,0,0-.97Z" transform="translate(-61.789 -236.59)"/></g></g></svg>