<svg xmlns="http://www.w3.org/2000/svg" width="37.69" height="37.69" viewBox="0 0 37.69 37.69"><defs><style>.a{fill:#147ad6;}.b{fill:#ff2828;}.c{fill:#e80054;}</style></defs><path class="a" d="M378.352,9.349V4.074a1.868,1.868,0,0,0-1.865-1.865h-5.275a1.1,1.1,0,0,1,0-2.208h5.275a4.078,4.078,0,0,1,4.074,4.074V9.349A1.1,1.1,0,0,1,378.352,9.349Z" transform="translate(-342.87)"/><path class="a" d="M0,9.349V4.074A4.078,4.078,0,0,1,4.074,0H9.349a1.1,1.1,0,0,1,0,2.208H4.074A1.868,1.868,0,0,0,2.208,4.074V9.349A1.1,1.1,0,0,1,0,9.349Z" transform="translate(0 0)"/><path class="a" d="M9.349,380.56H4.074A4.078,4.078,0,0,1,0,376.486v-5.275a1.1,1.1,0,0,1,2.208,0v5.275a1.868,1.868,0,0,0,1.865,1.865H9.349A1.1,1.1,0,0,1,9.349,380.56Z" transform="translate(0 -342.87)"/><path class="a" d="M376.486,380.56h-5.275a1.1,1.1,0,0,1,0-2.208h5.275a1.868,1.868,0,0,0,1.865-1.865v-5.275a1.1,1.1,0,0,1,2.208,0v5.275A4.078,4.078,0,0,1,376.486,380.56Z" transform="translate(-342.87 -342.87)"/><path class="b" d="M111.809,47.219c-6.868-5.094-14.073-5.264-21.2-.088a1.1,1.1,0,0,1-1.3-1.787c7.831-5.687,16.09-5.626,23.813.1A1.1,1.1,0,0,1,111.809,47.219Z" transform="translate(-82.304 -38.088)"/><path class="c" d="M266.66,47.114A18.364,18.364,0,0,0,256,43.208V41a20.543,20.543,0,0,1,11.975,4.34A1.1,1.1,0,0,1,266.66,47.114Z" transform="translate(-237.155 -37.982)"/><path class="b" d="M99.175,113.541a1.1,1.1,0,0,1-1.506-.411c-2.2-3.846-7.519-5.921-11.409-5.921-3.973,0-9.322,2.8-11.448,5.986a1.1,1.1,0,0,1-1.837-1.225c2.562-3.844,8.592-6.97,13.286-6.97C94.44,105,101.743,112.072,99.175,113.541Z" transform="translate(-67.415 -97.271)"/><path class="c" d="M268.915,113.541a1.1,1.1,0,0,1-1.506-.411c-2.2-3.846-7.519-5.921-11.409-5.921V105C264.181,105,271.483,112.072,268.915,113.541Z" transform="translate(-237.155 -97.271)"/><path class="b" d="M161.342,241.76v1.178a1.1,1.1,0,0,1-2.208,0V241.76c0-3.612-2.675-6.552-5.963-6.552s-5.963,2.939-5.963,6.552c0,3.746,3.017,5.778,4.7,8.2A1.105,1.105,0,0,1,151,251.7c-.767,0-.714-.37-2.323-2.2-1.637-1.861-3.675-4.176-3.675-7.737,0-4.831,3.665-8.76,8.171-8.76S161.342,236.929,161.342,241.76Z" transform="translate(-134.326 -215.848)"/><path class="c" d="M256,235.208V233c4.506,0,8.171,3.929,8.171,8.76v1.178a1.1,1.1,0,0,1-2.208,0V241.76C261.963,238.148,259.288,235.208,256,235.208Z" transform="translate(-237.155 -215.848)"/><path class="b" d="M106.059,186.5a5.787,5.787,0,0,1-10.926-2.85c0-4.761-3.259-3.159-2.536-.268a1.1,1.1,0,0,1-2.142.536c-1.5-6.015,6.887-8.454,6.887-.268a3.563,3.563,0,0,0,2.766,3.679c5.111,1.206,6.628-7.227,1.53-12.656-7.048-7.511-18.43-1.718-18.43,7.21,0,2.694.409,4.221,1.561,5.837a1.1,1.1,0,0,1-1.8,1.282A11.25,11.25,0,0,1,81,181.882,13.1,13.1,0,0,1,93.882,169C103.411,169,109.467,179.683,106.059,186.5Z" transform="translate(-75.037 -156.559)"/><path class="c" d="M268.177,186.5a5.787,5.787,0,0,1-10.926-2.85c0-1.5-.387-3.018-1.251-3.018v-2.208c2.134,0,3.46,2,3.46,5.227a3.58,3.58,0,0,0,6.742,1.862c2.632-5.26-2.227-14.3-10.2-14.3V169C265.529,169,271.584,179.683,268.177,186.5Z" transform="translate(-237.155 -156.559)"/></svg>