<svg xmlns="http://www.w3.org/2000/svg" width="31.986" height="28.097" viewBox="0 0 31.986 28.097"><defs><style>.a{fill:#147ad6;}.b{fill:#459ceb;}.c{fill:#268de9;}.d{fill:rgba(20,122,214,0);stroke:#147ad6;}.e{fill:rgba(171,187,207,0.28);}.f{fill:#2c8ce2;opacity:0.64;}</style></defs><g transform="translate(-39.922 -50.723)"><g transform="translate(49.41 51.223)"><g transform="translate(0 0)"><path class="a" d="M110.224,56.635H93.118a2.7,2.7,0,1,1,0-5.393h17.105a2.7,2.7,0,1,1,0,5.393Z" transform="translate(-90.422 -51.242)"/></g><g transform="translate(0.719 0.719)"><path class="b" d="M94.78,57.577a.36.36,0,1,1,.36-.36A.361.361,0,0,1,94.78,57.577Zm.6-1.255a.359.359,0,0,1-.227-.638A1.977,1.977,0,0,1,96.4,55.24h15.251a.36.36,0,0,1,0,.719H96.4a1.25,1.25,0,0,0-.793.282A.356.356,0,0,1,95.378,56.322Z" transform="translate(-94.42 -55.24)"/></g><g transform="translate(0.116 0.116)"><path class="b" d="M111.535,51.885a2.7,2.7,0,0,1-2.581,3.48H91.848a2.7,2.7,0,0,1-.783-.116,2.7,2.7,0,0,0,2.581,1.913h17.105a2.7,2.7,0,0,0,.783-5.277Z" transform="translate(-91.065 -51.885)"/></g><g transform="translate(0 11.102)"><path class="a" d="M110.224,118.393H93.118a2.7,2.7,0,1,1,0-5.393h17.105a2.7,2.7,0,1,1,0,5.393Z" transform="translate(-90.422 -113)"/></g><g transform="translate(0.116 11.217)"><path class="b" d="M111.535,113.643a2.7,2.7,0,0,1-2.581,3.48H91.848a2.7,2.7,0,0,1-.783-.116,2.7,2.7,0,0,0,2.581,1.913h17.105a2.7,2.7,0,0,0,.783-5.277Z" transform="translate(-91.065 -113.643)"/></g><g transform="translate(0 22.204)"><path class="a" d="M110.224,180.151H93.118a2.7,2.7,0,0,1,0-5.393h17.105a2.7,2.7,0,1,1,0,5.393Z" transform="translate(-90.422 -174.758)"/></g><g transform="translate(0.116 22.319)"><path class="b" d="M111.535,175.4a2.7,2.7,0,0,1-2.581,3.48H91.848a2.7,2.7,0,0,1-.783-.116,2.7,2.7,0,0,0,2.581,1.913h17.105a2.7,2.7,0,0,0,.783-5.277Z" transform="translate(-91.065 -175.401)"/></g><g transform="translate(0.394 22.597)"><path class="c" d="M113.425,176.949a2.7,2.7,0,0,1-2.3,4.1H94.017a2.683,2.683,0,0,1-1.4-.394,2.7,2.7,0,0,0,2.3,1.293h17.105a2.7,2.7,0,0,0,1.4-5Z" transform="translate(-92.613 -176.949)"/></g></g><g transform="translate(40.422 51.223)"><circle class="d" cx="2.696" cy="2.696" r="2.696" transform="translate(0)"/></g><g transform="translate(40.422 62.325)"><circle class="d" cx="2.696" cy="2.696" r="2.696" transform="translate(0)"/></g><g transform="translate(40.422 71.532)"><path class="e" d="M3.581,22a.2.2,0,0,1-.291.015L.105,18.557c-.084-.08-.088.234,1.006-.922a.212.212,0,0,1,.3-.008l1.74,1.646a.2.2,0,0,0,.291-.015l3.4-3.949a.211.211,0,0,1,.3-.022c1.207,1.039,1.217.724,1.141.812Z" transform="translate(-0.04 -14.788)"/><path class="a" d="M3.541,22a.2.2,0,0,1-.291.015L.065,19a.212.212,0,0,1-.008-.3l1.015-1.072a.212.212,0,0,1,.3-.008l1.74,1.646a.2.2,0,0,0,.291-.015l3.4-3.949a.211.211,0,0,1,.3-.022l1.119.963a.211.211,0,0,1,.022.3Z" transform="translate(0 -15.236)"/><path class="f" d="M3.541,22.712a.2.2,0,0,1-.291.015L.065,19.712a.212.212,0,0,1-.008-.3L.6,18.839l2.746,2.528L7.7,16.518l.511.439a.211.211,0,0,1,.022.3Z" transform="translate(0 -15.943)"/></g></g></svg>