<svg xmlns="http://www.w3.org/2000/svg" width="34.257" height="34.257" viewBox="0 0 34.257 34.257"><defs><style>.a{fill:#ff4155;}.b{fill:#e80054;}.c{fill:#ebf5fc;}.d{fill:#d3dcfa;}.e{fill:#405b6c;}.f{fill:#312a2a;}.g{fill:#434343;}.h{fill:#d3dcfb;}.i{fill:rgba(235,245,252,0.44);}</style></defs><path class="a" d="M26.228,33.078v3.011L24.221,38.1H2.007L0,36.089V33.078A3.064,3.064,0,0,1,3.011,30H23.217A3.064,3.064,0,0,1,26.228,33.078Z" transform="translate(0 -27.993)"/><path class="b" d="M209.114,33.078v3.011L207.107,38.1H196V30h10.1A3.064,3.064,0,0,1,209.114,33.078Z" transform="translate(-182.886 -27.993)"/><path class="c" d="M26.228,121v23.083a3.065,3.065,0,0,1-3.011,3.078H3.011A3.065,3.065,0,0,1,0,144.083V121Z" transform="translate(0 -112.904)"/><path class="d" d="M209.114,121v23.083a3.065,3.065,0,0,1-3.011,3.078H204V121Z" transform="translate(-182.886 -112.904)"/><path class="c" d="M61,6.089a1,1,0,0,1-1-1V1a1,1,0,0,1,2.007,0V5.085A1,1,0,0,1,61,6.089Z" transform="translate(-55.986)"/><path class="c" d="M122,6.089a1,1,0,0,1-1-1V1a1,1,0,0,1,2.007,0V5.085A1,1,0,0,1,122,6.089Z" transform="translate(-112.904)"/><path class="c" d="M183.007,1V5.085a1,1,0,1,1-2.007,0V1a1,1,0,1,1,2.007,0Z" transform="translate(-168.89)"/><path class="c" d="M243,6.089a1,1,0,0,1-1-1V1a1,1,0,0,1,2.007,0V5.085A1,1,0,0,1,243,6.089Z" transform="translate(-225.808)"/><path class="c" d="M303,6.089a1,1,0,0,1-1-1V1a1,1,0,1,1,2.007,0V5.085A1,1,0,0,1,303,6.089Z" transform="translate(-281.794)"/><path class="e" d="M70.1,392a.994.994,0,0,1-1,1H61A1,1,0,0,1,61,391h8.1A.994.994,0,0,1,70.1,392Z" transform="translate(-55.986 -364.839)"/><path class="e" d="M67.092,303.007H61A1,1,0,1,1,61,301h6.089a1,1,0,1,1,0,2.007Z" transform="translate(-55.986 -280.861)"/><path class="e" d="M65.085,213.007H61A1,1,0,1,1,61,211h4.081a1,1,0,1,1,0,2.007Z" transform="translate(-55.986 -196.882)"/><g transform="translate(16.187 1.819)"><g transform="translate(11.24 6.489)"><path class="f" d="M409.91,137.554a14.2,14.2,0,0,1,4.516-9.219,1,1,0,0,0-.22-1.567l-1.25-.722a1,1,0,1,1,1-1.738l1.25.722a3.01,3.01,0,0,1,.659,4.7,11.793,11.793,0,0,0-3.954,7.944,1,1,0,1,1-2-.12Z" transform="translate(-409.909 -124.173)"/></g><path class="g" d="M412.221,31.709l-1.505,2.607-2.6.815L406.1,33.968l-.6-2.662,1.505-2.607a3.011,3.011,0,0,1,5.215,3.011Z" transform="translate(-394.556 -27.191)"/><path class="f" d="M430.481,40.783l-1.008-.582,4.014-6.953a3.007,3.007,0,0,1,1.1,4.113l-1.505,2.607Z" transform="translate(-416.924 -32.843)"/><path class="a" d="M267.392,108.23,262,105.119a15.283,15.283,0,0,1,3.18-8.038c.31-.377,5.706-7.274,5.959-7.592l.462-.8,5.215,3.011-.452.782c-.03.052-3.479,8.676-3.605,8.974A15.283,15.283,0,0,1,267.392,108.23Z" transform="translate(-260.66 -84.575)"/><path class="b" d="M304.967,129.225l-2.694-1.556,9.514-16.479,2.607,1.505-.452.782c-.03.052-3.479,8.676-3.605,8.974A15.283,15.283,0,0,1,304.967,129.225Z" transform="translate(-298.235 -105.57)"/><path class="h" d="M247.065,322.773a3.221,3.221,0,0,0-3.424.109l-.375.247c-.011.179-.056.338-.067.518l-.255,4.256-.883,1.53a1,1,0,0,0,1.738,1l.883-1.53,3.558-2.349c.15-.1.265-.218.415-.317l.027-.448A3.221,3.221,0,0,0,247.065,322.773Z" transform="translate(-241.923 -302.586)"/><path class="i" d="M254.11,328.909l-2.629,4.554h0l-2.007,3.477a.994.994,0,0,0,1.371-.367l.883-1.53,3.558-2.349c.15-.1.265-.218.415-.317l.027-.448A3.221,3.221,0,0,0,254.11,328.909Z" transform="translate(-248.968 -308.722)"/></g><path class="h" d="M196,6.086V0a.993.993,0,0,1,1,1V5.083A.993.993,0,0,1,196,6.086Z" transform="translate(-182.886 0.001)"/><path class="h" d="M196,6.086V0a.993.993,0,0,1,1,1V5.083A.993.993,0,0,1,196,6.086Z" transform="translate(-178.805 0.001)"/><path class="h" d="M196,6.086V0a.993.993,0,0,1,1,1V5.083A.993.993,0,0,1,196,6.086Z" transform="translate(-174.79 0.001)"/></svg>