<svg xmlns="http://www.w3.org/2000/svg" width="37" height="39.642" viewBox="0 0 37 39.642"><defs><style>.a{fill:#d3dcfb;}.b{fill:#ebf5fc;}.c{fill:#3c58a0;}.d{fill:#2a428c;}.e{fill:#ff4155;}.f{fill:#e80054;}.g{fill:#4fabf7;}.h{fill:#1886ea;}.i{fill:#ffdd40;}</style></defs><g transform="translate(-17.058)"><g transform="translate(17.058)"><path class="a" d="M34.8,363.685H19.7a2.643,2.643,0,0,1-2.643-2.643V358.4H37.341Z" transform="translate(-17.059 -330.651)"/><path class="b" d="M51.418,74.873v18.5H19.7a2.643,2.643,0,0,1-2.643-2.643V74.873l18.5-6.607Z" transform="translate(-17.059 -62.981)"/><g transform="translate(2.644 14.535)"><path class="c" d="M53.226,190.377h-1.4a.619.619,0,0,1-.619-.619v-1.4a.619.619,0,0,1,.619-.619h1.4a.619.619,0,0,1,.619.619v1.4A.619.619,0,0,1,53.226,190.377Z" transform="translate(-51.203 -187.734)"/><path class="c" d="M121.493,190.377h-1.4a.619.619,0,0,1-.619-.619v-1.4a.619.619,0,0,1,.619-.619h1.4a.619.619,0,0,1,.619.619v1.4A.619.619,0,0,1,121.493,190.377Z" transform="translate(-114.184 -187.734)"/><path class="c" d="M189.759,190.377h-1.4a.619.619,0,0,1-.619-.619v-1.4a.619.619,0,0,1,.619-.619h1.4a.619.619,0,0,1,.619.619v1.4A.619.619,0,0,1,189.759,190.377Z" transform="translate(-177.165 -187.734)"/><path class="c" d="M258.026,190.377h-1.4a.619.619,0,0,1-.619-.619v-1.4a.619.619,0,0,1,.619-.619h1.4a.619.619,0,0,1,.619.619v1.4A.619.619,0,0,1,258.026,190.377Z" transform="translate(-240.146 -187.734)"/><path class="c" d="M326.281,190.377h-1.4a.619.619,0,0,1-.619-.619v-1.4a.619.619,0,0,1,.619-.619h1.4a.619.619,0,0,1,.619.619v1.4A.619.619,0,0,1,326.281,190.377Z" transform="translate(-303.117 -187.734)"/><path class="c" d="M394.548,190.377h-1.4a.619.619,0,0,1-.619-.619v-1.4a.619.619,0,0,1,.619-.619h1.4a.619.619,0,0,1,.619.619v1.4A.619.619,0,0,1,394.548,190.377Z" transform="translate(-366.098 -187.734)"/><path class="c" d="M53.226,258.643h-1.4a.619.619,0,0,1-.619-.619v-1.4a.619.619,0,0,1,.619-.619h1.4a.619.619,0,0,1,.619.619v1.4A.619.619,0,0,1,53.226,258.643Z" transform="translate(-51.203 -250.715)"/><path class="c" d="M121.493,258.643h-1.4a.619.619,0,0,1-.619-.619v-1.4a.619.619,0,0,1,.619-.619h1.4a.619.619,0,0,1,.619.619v1.4A.619.619,0,0,1,121.493,258.643Z" transform="translate(-114.184 -250.715)"/><path class="c" d="M189.759,258.643h-1.4a.619.619,0,0,1-.619-.619v-1.4a.619.619,0,0,1,.619-.619h1.4a.619.619,0,0,1,.619.619v1.4A.619.619,0,0,1,189.759,258.643Z" transform="translate(-177.165 -250.715)"/><path class="c" d="M258.646,258.643v-1.982a.661.661,0,0,0-.661-.661h-1.321a.661.661,0,0,0-.661.661v1.321a.661.661,0,0,0,.661.661Z" transform="translate(-240.146 -250.714)"/><path class="c" d="M53.226,326.91h-1.4a.619.619,0,0,1-.619-.619v-1.4a.619.619,0,0,1,.619-.619h1.4a.619.619,0,0,1,.619.619v1.4A.619.619,0,0,1,53.226,326.91Z" transform="translate(-51.203 -313.696)"/><path class="c" d="M121.493,326.91h-1.4a.619.619,0,0,1-.619-.619v-1.4a.619.619,0,0,1,.619-.619h1.4a.619.619,0,0,1,.619.619v1.4A.619.619,0,0,1,121.493,326.91Z" transform="translate(-114.184 -313.696)"/><path class="c" d="M189.759,326.91h-1.4a.619.619,0,0,1-.619-.619v-1.4a.619.619,0,0,1,.619-.619h1.4a.619.619,0,0,1,.619.619v1.4A.619.619,0,0,1,189.759,326.91Z" transform="translate(-177.165 -313.696)"/></g><path class="d" d="M399.346,187.733h-1.367a.637.637,0,0,0-.234.045.638.638,0,0,1,.4.593v1.367a.638.638,0,0,1-.4.593.635.635,0,0,0,.234.045h1.367a.638.638,0,0,0,.638-.638v-1.367A.638.638,0,0,0,399.346,187.733Z" transform="translate(-368.27 -173.198)"/><path class="d" d="M331.078,187.733h-1.367a.637.637,0,0,0-.234.045.638.638,0,0,1,.4.593v1.367a.638.638,0,0,1-.4.593.635.635,0,0,0,.234.045h1.367a.638.638,0,0,0,.638-.638v-1.367A.638.638,0,0,0,331.078,187.733Z" transform="translate(-305.289 -173.198)"/><path class="d" d="M262.823,187.733h-1.367a.636.636,0,0,0-.234.045.638.638,0,0,1,.4.593v1.367a.638.638,0,0,1-.4.593.635.635,0,0,0,.234.045h1.367a.638.638,0,0,0,.638-.638v-1.367A.638.638,0,0,0,262.823,187.733Z" transform="translate(-242.319 -173.198)"/><path class="d" d="M194.557,187.733H193.19a.637.637,0,0,0-.234.045.638.638,0,0,1,.4.593v1.367a.638.638,0,0,1-.4.593.635.635,0,0,0,.234.045h1.367a.638.638,0,0,0,.638-.638v-1.367A.638.638,0,0,0,194.557,187.733Z" transform="translate(-179.337 -173.198)"/><path class="d" d="M126.29,187.733h-1.367a.637.637,0,0,0-.234.045.638.638,0,0,1,.4.593v1.367a.638.638,0,0,1-.4.593.635.635,0,0,0,.234.045h1.367a.638.638,0,0,0,.638-.638v-1.367A.638.638,0,0,0,126.29,187.733Z" transform="translate(-116.356 -173.198)"/><path class="d" d="M58.024,187.733H56.657a.637.637,0,0,0-.234.045.638.638,0,0,1,.4.593v1.367a.638.638,0,0,1-.4.593.635.635,0,0,0,.234.045h1.367a.638.638,0,0,0,.638-.638v-1.367A.638.638,0,0,0,58.024,187.733Z" transform="translate(-53.375 -173.198)"/><path class="d" d="M58.024,256H56.657a.637.637,0,0,0-.234.045.638.638,0,0,1,.4.593V258a.638.638,0,0,1-.4.593.635.635,0,0,0,.234.045h1.367a.638.638,0,0,0,.638-.638v-1.367A.638.638,0,0,0,58.024,256Z" transform="translate(-53.375 -236.179)"/><path class="d" d="M58.024,324.267H56.657a.636.636,0,0,0-.234.045.638.638,0,0,1,.4.593v1.367a.638.638,0,0,1-.4.593.636.636,0,0,0,.234.045h1.367a.638.638,0,0,0,.638-.638v-1.367A.638.638,0,0,0,58.024,324.267Z" transform="translate(-53.375 -299.161)"/><path class="d" d="M126.29,256h-1.367a.638.638,0,0,0-.234.045.638.638,0,0,1,.4.593V258a.638.638,0,0,1-.4.593.635.635,0,0,0,.234.045h1.367a.638.638,0,0,0,.638-.638v-1.367A.638.638,0,0,0,126.29,256Z" transform="translate(-116.356 -236.179)"/><path class="d" d="M126.29,324.267h-1.367a.636.636,0,0,0-.234.045.638.638,0,0,1,.4.593v1.367a.638.638,0,0,1-.4.593.636.636,0,0,0,.234.045h1.367a.638.638,0,0,0,.638-.638v-1.367A.638.638,0,0,0,126.29,324.267Z" transform="translate(-116.356 -299.161)"/><path class="d" d="M194.557,256H193.19a.638.638,0,0,0-.234.045.638.638,0,0,1,.4.593V258a.638.638,0,0,1-.4.593.635.635,0,0,0,.234.045h1.367a.638.638,0,0,0,.638-.638v-1.367A.638.638,0,0,0,194.557,256Z" transform="translate(-179.337 -236.179)"/><path class="d" d="M263.461,258.643v-2a.638.638,0,0,0-.638-.638h-1.367a.637.637,0,0,0-.234.045.638.638,0,0,1,.4.593V258a.638.638,0,0,1-.4.593.636.636,0,0,0,.234.045h2Z" transform="translate(-242.318 -236.179)"/><path class="d" d="M194.557,324.267H193.19a.636.636,0,0,0-.234.045.638.638,0,0,1,.4.593v1.367a.638.638,0,0,1-.4.593.636.636,0,0,0,.234.045h1.367a.638.638,0,0,0,.638-.638v-1.367A.638.638,0,0,0,194.557,324.267Z" transform="translate(-179.337 -299.161)"/><path class="a" d="M437.114,143.721v19.264h1.836v-18.5Z" transform="translate(-404.591 -132.593)"/><path class="e" d="M51.418,43.384V36.777a2.643,2.643,0,0,0-2.643-2.643H19.7a2.643,2.643,0,0,0-2.643,2.643v6.607Z" transform="translate(-17.059 -31.491)"/><g transform="translate(6.009 4.687)"><path class="f" d="M96.984,61.737h-1.72a.6.6,0,1,1,0-1.2h1.72a.6.6,0,1,1,0,1.2Z" transform="translate(-94.666 -60.541)"/><g transform="translate(4.226)"><path class="f" d="M151.566,61.737h-1.72a.6.6,0,0,1,0-1.2h1.72a.6.6,0,1,1,0,1.2Z" transform="translate(-149.248 -60.541)"/></g><g transform="translate(15.197)"><path class="f" d="M293.261,61.737h-1.72a.6.6,0,0,1,0-1.2h1.72a.6.6,0,0,1,0,1.2Z" transform="translate(-290.943 -60.541)"/></g><g transform="translate(19.423)"><path class="f" d="M347.844,61.737h-1.72a.6.6,0,1,1,0-1.2h1.72a.6.6,0,1,1,0,1.2Z" transform="translate(-345.526 -60.541)"/></g></g><path class="b" d="M122.762,4.955a1.652,1.652,0,0,1-3.3,0v-3.3a1.652,1.652,0,1,1,3.3,0v3.3Z" transform="translate(-111.531 0)"/><path class="b" d="M319.039,4.955a1.652,1.652,0,0,1-3.3,0v-3.3a1.652,1.652,0,1,1,3.3,0v3.3Z" transform="translate(-292.611 0)"/><path class="a" d="M326.149,0a1.643,1.643,0,0,0-.916.278,1.65,1.65,0,0,1,.735,1.374v3.3a1.65,1.65,0,0,1-.735,1.374A1.651,1.651,0,0,0,327.8,4.955v-3.3A1.652,1.652,0,0,0,326.149,0Z" transform="translate(-301.373 0)"/><path class="a" d="M129.871,0a1.644,1.644,0,0,0-.916.278,1.65,1.65,0,0,1,.735,1.374v3.3a1.65,1.65,0,0,1-.735,1.374,1.651,1.651,0,0,0,2.568-1.374v-3.3A1.652,1.652,0,0,0,129.871,0Z" transform="translate(-120.291 0)"/><path class="f" d="M404.825,34.133H402.99a2.643,2.643,0,0,1,2.643,2.643v6.607h1.835V36.776a2.643,2.643,0,0,0-2.643-2.643Z" transform="translate(-373.109 -31.49)"/><path class="f" d="M17.058,111.74H51.417v1.2H17.058Z" transform="translate(-17.058 -103.089)"/></g><circle class="g" cx="9.91" cy="9.91" r="9.91" transform="translate(34.237 19.821)"/><circle class="b" cx="7.268" cy="7.268" r="7.268" transform="translate(36.88 22.464)"/><g transform="translate(43.55 24.508)"><path class="c" d="M359.814,321.04a.6.6,0,0,1-.6-.6v-3.3a.6.6,0,1,1,1.2,0v3.3A.6.6,0,0,1,359.814,321.04Z" transform="translate(-359.216 -316.54)"/></g><g transform="translate(44.871 29.133)"><path class="c" d="M378.862,377.47H376.88a.6.6,0,0,1,0-1.2h1.982a.6.6,0,0,1,0,1.2Z" transform="translate(-376.282 -376.274)"/></g><path class="h" d="M356.011,256c-.309,0-.615.015-.917.043a9.91,9.91,0,0,1,0,19.735c.3.028.608.043.917.043a9.91,9.91,0,0,0,0-19.821Z" transform="translate(-311.864 -236.179)"/><path class="a" d="M356.02,290.133a7.339,7.339,0,0,0-.917.057,7.268,7.268,0,0,1,0,14.421,7.268,7.268,0,1,0,.917-14.478Z" transform="translate(-311.872 -267.669)"/><circle class="i" cx="1.321" cy="1.321" r="1.321" transform="translate(42.826 28.41)"/></g></svg>